<svg width="2204" height="1710" xmlns="http://www.w3.org/2000/svg" xmlns:xlink="http://www.w3.org/1999/xlink" xml:space="preserve" overflow="hidden"><g transform="translate(9 -4)"><g><path d="M319.5 814.001C319.5 794.394 335.394 778.5 355 778.5L628.999 778.5C648.606 778.5 664.5 794.394 664.5 814.001L664.5 955.999C664.5 975.606 648.606 991.5 628.999 991.5L355 991.5C335.394 991.5 319.5 975.606 319.5 955.999Z" stroke="#042433" stroke-width="6.875" stroke-linecap="butt" stroke-linejoin="miter" stroke-miterlimit="8" stroke-opacity="1" fill="#D1D1D1" fill-rule="evenodd" fill-opacity="1"/><text fill="#000000" fill-opacity="1" font-family="Aptos,Aptos_MSFontService,sans-serif" font-style="normal" font-variant="normal" font-weight="400" font-stretch="normal" font-size="57" text-anchor="start" direction="ltr" writing-mode="lr-tb" unicode-bidi="normal" text-decoration="none" transform="matrix(1 0 0 1 390.801 869)">Speaker </text><text fill="#000000" fill-opacity="1" font-family="Aptos,Aptos_MSFontService,sans-serif" font-style="normal" font-variant="normal" font-weight="400" font-stretch="normal" font-size="57" text-anchor="start" direction="ltr" writing-mode="lr-tb" unicode-bidi="normal" text-decoration="none" transform="matrix(1 0 0 1 388.394 924)">Encoder</text><path d="M327.5 329.001C327.5 309.394 343.394 293.5 363.001 293.5L628.999 293.5C648.606 293.5 664.5 309.394 664.5 329.001L664.5 470.999C664.5 490.606 648.606 506.5 628.999 506.5L363.001 506.5C343.394 506.5 327.5 490.606 327.5 470.999Z" stroke="#042433" stroke-width="6.875" stroke-linecap="butt" stroke-linejoin="miter" stroke-miterlimit="8" stroke-opacity="1" fill="none" fill-rule="evenodd"/><text fill="#000000" fill-opacity="1" font-family="Aptos,Aptos_MSFontService,sans-serif" font-style="normal" font-variant="normal" font-weight="400" font-stretch="normal" font-size="57" text-anchor="start" direction="ltr" writing-mode="lr-tb" unicode-bidi="normal" text-decoration="none" transform="matrix(1 0 0 1 395.068 384)">Content</text><text fill="#000000" fill-opacity="1" font-family="Aptos,Aptos_MSFontService,sans-serif" font-style="normal" font-variant="normal" font-weight="400" font-stretch="normal" font-size="57" text-anchor="start" direction="ltr" writing-mode="lr-tb" unicode-bidi="normal" text-decoration="none" transform="matrix(1 0 0 1 392.364 453)">Encoder</text><path d="M1593.5 333.001C1593.5 313.394 1609.39 297.5 1629 297.5L1895 297.5C1914.61 297.5 1930.5 313.394 1930.5 333.001L1930.5 474.999C1930.5 494.605 1914.61 510.5 1895 510.5L1629 510.5C1609.39 510.5 1593.5 494.605 1593.5 474.999Z" stroke="#042433" stroke-width="6.875" stroke-linecap="butt" stroke-linejoin="miter" stroke-miterlimit="8" stroke-opacity="1" fill="none" fill-rule="evenodd"/><text fill="#000000" fill-opacity="1" font-family="Aptos,Aptos_MSFontService,sans-serif" font-style="normal" font-variant="normal" font-weight="400" font-stretch="normal" font-size="57" text-anchor="start" direction="ltr" writing-mode="lr-tb" unicode-bidi="normal" text-decoration="none" transform="matrix(1 0 0 1 1655.29 422)">Decoder</text><path d="M1159.5 333.001C1159.5 313.394 1175.39 297.5 1195 297.5L1460 297.5C1479.61 297.5 1495.5 313.394 1495.5 333.001L1495.5 474.999C1495.5 494.606 1479.61 510.5 1460 510.5L1195 510.5C1175.39 510.5 1159.5 494.606 1159.5 474.999Z" stroke="#042433" stroke-width="6.875" stroke-linecap="butt" stroke-linejoin="miter" stroke-miterlimit="8" stroke-opacity="1" fill="none" fill-rule="evenodd"/><text fill="#000000" fill-opacity="1" font-family="Aptos,Aptos_MSFontService,sans-serif" font-style="normal" font-variant="normal" font-weight="400" font-stretch="normal" font-size="57" text-anchor="start" direction="ltr" writing-mode="lr-tb" unicode-bidi="normal" text-decoration="none" transform="matrix(1 0 0 1 1219.05 388)">Variance </text><text fill="#000000" fill-opacity="1" font-family="Aptos,Aptos_MSFontService,sans-serif" font-style="normal" font-variant="normal" font-weight="400" font-stretch="normal" font-size="57" text-anchor="start" direction="ltr" writing-mode="lr-tb" unicode-bidi="normal" text-decoration="none" transform="matrix(1 0 0 1 1229.18 457)">Adapter</text><path d="M3.4375-0.000200821 3.43977 38.8578-3.43523 38.8582-3.4375 0.000200821ZM13.752 34.2739 0.00360892 61.7747-13.748 34.2755Z" fill="#000000" fill-rule="nonzero" fill-opacity="1" transform="matrix(1 0 0 -1 906.5 223.275)"/><path d="M0-3.4375 600.199-3.4375 600.453 103.326 593.578 103.342 593.332 0.00815766 596.77 3.4375 0 3.4375ZM610.5 98.0215 598.241 126.218 583.039 99.4929Z" fill="#000000" fill-rule="nonzero" fill-opacity="1" transform="matrix(1 0 0 -1 664.5 640.718)"/><path d="M229.5 397.062 304.476 397.063 304.476 403.938 229.5 403.937ZM299.892 386.75 327.392 400.5 299.892 414.25Z" fill="#000000" fill-rule="nonzero" fill-opacity="1"/><path d="M229.5 397.062 281.884 397.062 281.884 641.156 278.446 637.719 304.476 637.719 304.476 644.594 275.009 644.594 275.009 400.5 278.446 403.937 229.5 403.937ZM299.892 627.406 327.392 641.156 299.892 654.906Z" fill="#000000" fill-rule="nonzero" fill-opacity="1"/><path d="M0-3.4375 709.979-3.4375 710.19 356.638 703.315 356.642 703.106 0.00201187 706.543 3.4375 0 3.4375ZM720.279 351.436 707.796 379.533 692.808 352.688Z" fill="#000000" fill-rule="nonzero" fill-opacity="1" transform="matrix(1 0 0 -1 664.5 885.033)"/><path d="M329.5 43.1675C329.5 25.1258 344.126 10.5002 362.167 10.5002L633.833 10.5002C651.874 10.5002 666.5 25.1258 666.5 43.1675L666.5 173.833C666.5 191.874 651.874 206.5 633.833 206.5L362.167 206.5C344.126 206.5 329.5 191.874 329.5 173.833Z" stroke="#042433" stroke-width="6.875" stroke-linecap="butt" stroke-linejoin="miter" stroke-miterlimit="8" stroke-opacity="1" fill="#D1D1D1" fill-rule="evenodd" fill-opacity="1"/><text fill="#000000" fill-opacity="1" font-family="Aptos,Aptos_MSFontService,sans-serif" font-style="normal" font-variant="normal" font-weight="400" font-stretch="normal" font-size="57" text-anchor="start" direction="ltr" writing-mode="lr-tb" unicode-bidi="normal" text-decoration="none" transform="matrix(1 0 0 1 376.022 92)">HuBERT + </text><text fill="#000000" fill-opacity="1" font-family="Aptos,Aptos_MSFontService,sans-serif" font-style="normal" font-variant="normal" font-weight="400" font-stretch="normal" font-size="57" text-anchor="start" direction="ltr" writing-mode="lr-tb" unicode-bidi="normal" text-decoration="none" transform="matrix(1 0 0 1 387.732 161)">K</text><text fill="#000000" fill-opacity="1" font-family="Aptos,Aptos_MSFontService,sans-serif" font-style="normal" font-variant="normal" font-weight="400" font-stretch="normal" font-size="57" text-anchor="start" direction="ltr" writing-mode="lr-tb" unicode-bidi="normal" text-decoration="none" transform="matrix(1 0 0 1 418.234 161)">-</text><text fill="#000000" fill-opacity="1" font-family="Aptos,Aptos_MSFontService,sans-serif" font-style="normal" font-variant="normal" font-weight="400" font-stretch="normal" font-size="57" text-anchor="start" direction="ltr" writing-mode="lr-tb" unicode-bidi="normal" text-decoration="none" transform="matrix(1 0 0 1 437.714 161)">means</text><path d="M0-3.4375 53.2475-3.4375 53.2475 291.625 49.81 288.187 76.7033 288.187 76.7033 295.062 46.3725 295.062 46.3725 0 49.81 3.4375 0 3.4375ZM72.12 277.875 99.62 291.625 72.12 305.375Z" fill="#000000" fill-rule="nonzero" fill-opacity="1" transform="matrix(1 0 0 -1 229.5 400.125)"/><path d="M723.5 73.1667C723.5 63.4096 731.41 55.4998 741.167 55.4998L1072.83 55.4998C1082.59 55.4998 1090.5 63.4096 1090.5 73.1667L1090.5 143.833C1090.5 153.59 1082.59 161.5 1072.83 161.5L741.167 161.5C731.41 161.5 723.5 153.59 723.5 143.833Z" stroke="#042433" stroke-width="6.875" stroke-linecap="butt" stroke-linejoin="miter" stroke-miterlimit="8" stroke-opacity="1" fill="none" fill-rule="evenodd"/><text fill="#000000" fill-opacity="1" font-family="Aptos,Aptos_MSFontService,sans-serif" font-style="normal" font-variant="normal" font-weight="400" font-stretch="normal" font-size="55" text-anchor="start" direction="ltr" writing-mode="lr-tb" unicode-bidi="normal" text-decoration="none" transform="matrix(1 0 0 1 817.259 126)">CE loss</text><path d="M666.505 105.063 701.127 105.111 701.117 111.986 666.495 111.938ZM696.558 94.7922 724.039 108.581 696.519 122.292Z" fill="#000000" fill-rule="nonzero" fill-opacity="1"/><path d="M664.527 397.063 1136.47 400.768 1136.41 407.643 664.473 403.937ZM1131.97 390.42 1159.36 404.386 1131.75 417.919Z" fill="#000000" fill-rule="nonzero" fill-opacity="1"/><path d="M229.5 397.062 281.15 397.062 281.15 885.375 277.712 881.938 296.537 881.938 296.537 888.813 274.275 888.813 274.275 400.5 277.712 403.937 229.5 403.937ZM291.953 871.625 319.453 885.375 291.953 899.125Z" fill="#000000" fill-rule="nonzero" fill-opacity="1"/><path d="M327.5 570.001C327.5 550.394 343.394 534.5 363.001 534.5L628.999 534.5C648.606 534.5 664.5 550.394 664.5 570.001L664.5 711.999C664.5 731.606 648.606 747.5 628.999 747.5L363.001 747.5C343.394 747.5 327.5 731.606 327.5 711.999Z" stroke="#042433" stroke-width="6.875" stroke-linecap="butt" stroke-linejoin="miter" stroke-miterlimit="8" stroke-opacity="1" fill="#D1D1D1" fill-rule="evenodd" fill-opacity="1"/><text fill="#000000" fill-opacity="1" font-family="Aptos,Aptos_MSFontService,sans-serif" font-style="normal" font-variant="normal" font-weight="400" font-stretch="normal" font-size="57" text-anchor="start" direction="ltr" writing-mode="lr-tb" unicode-bidi="normal" text-decoration="none" transform="matrix(1 0 0 1 372.827 624)">F0/Energy</text><text fill="#000000" fill-opacity="1" font-family="Aptos,Aptos_MSFontService,sans-serif" font-style="normal" font-variant="normal" font-weight="400" font-stretch="normal" font-size="57" text-anchor="start" direction="ltr" writing-mode="lr-tb" unicode-bidi="normal" text-decoration="none" transform="matrix(1 0 0 1 384.767 693)">Extractor</text><path d="M723.5 241.167C723.5 231.41 731.41 223.5 741.167 223.5L1072.83 223.5C1082.59 223.5 1090.5 231.41 1090.5 241.167L1090.5 311.833C1090.5 321.59 1082.59 329.5 1072.83 329.5L741.167 329.5C731.41 329.5 723.5 321.59 723.5 311.833Z" stroke="#042433" stroke-width="6.875" stroke-linecap="butt" stroke-linejoin="miter" stroke-miterlimit="8" stroke-opacity="1" fill="none" fill-rule="evenodd"/><text fill="#000000" fill-opacity="1" font-family="Aptos,Aptos_MSFontService,sans-serif" font-style="normal" font-variant="normal" font-weight="400" font-stretch="normal" font-size="55" text-anchor="start" direction="ltr" writing-mode="lr-tb" unicode-bidi="normal" text-decoration="none" transform="matrix(1 0 0 1 762.21 294)">Linear Layer</text><path d="M0-3.4375 245.96-3.4375 245.96 47.501 239.085 47.501 239.085 0 242.522 3.4375 0 3.4375ZM256.272 42.9177 242.522 70.4177 228.772 42.9177Z" fill="#000000" fill-rule="nonzero" fill-opacity="1" transform="matrix(1 0 0 -1 664.5 399.918)"/><path d="M0-3.4375 1101.19-3.4375 1101.19 351.406 1094.31 351.406 1094.31 0 1097.75 3.4375 0 3.4375ZM1111.5 346.823 1097.75 374.323 1084 346.823Z" fill="#000000" fill-rule="nonzero" fill-opacity="1" transform="matrix(1 0 0 -1 664.5 884.823)"/><path d="M1495.5 400.063 1570.48 400.063 1570.48 406.938 1495.5 406.938ZM1565.89 389.75 1593.39 403.5 1565.89 417.25Z" fill="#000000" fill-rule="nonzero" fill-opacity="1"/><text fill="#000000" fill-opacity="1" font-family="Aptos,Aptos_MSFontService,sans-serif" font-style="italic" font-variant="normal" font-weight="400" font-stretch="normal" font-size="64" text-anchor="start" direction="ltr" writing-mode="lr-tb" unicode-bidi="normal" text-decoration="none" transform="matrix(1 0 0 1 1031.76 466)">Z</text><path d="M301.5 1383.17C301.5 1363.47 317.469 1347.5 337.167 1347.5L610.833 1347.5C630.531 1347.5 646.5 1363.47 646.5 1383.17L646.5 1525.83C646.5 1545.53 630.531 1561.5 610.833 1561.5L337.167 1561.5C317.469 1561.5 301.5 1545.53 301.5 1525.83Z" stroke="#042433" stroke-width="6.875" stroke-linecap="butt" stroke-linejoin="miter" stroke-miterlimit="8" stroke-opacity="1" fill="#D1D1D1" fill-rule="evenodd" fill-opacity="1"/><text fill="#000000" fill-opacity="1" font-family="Aptos,Aptos_MSFontService,sans-serif" font-style="normal" font-variant="normal" font-weight="400" font-stretch="normal" font-size="57" text-anchor="start" direction="ltr" writing-mode="lr-tb" unicode-bidi="normal" text-decoration="none" transform="matrix(1 0 0 1 372.59 1439)">Speaker </text><text fill="#000000" fill-opacity="1" font-family="Aptos,Aptos_MSFontService,sans-serif" font-style="normal" font-variant="normal" font-weight="400" font-stretch="normal" font-size="57" text-anchor="start" direction="ltr" writing-mode="lr-tb" unicode-bidi="normal" text-decoration="none" transform="matrix(1 0 0 1 370.183 1494)">Encoder</text><path d="M309.5 1130.17C309.5 1110.47 325.469 1094.5 345.167 1094.5L610.833 1094.5C630.531 1094.5 646.5 1110.47 646.5 1130.17L646.5 1272.83C646.5 1292.53 630.531 1308.5 610.833 1308.5L345.167 1308.5C325.469 1308.5 309.5 1292.53 309.5 1272.83Z" stroke="#042433" stroke-width="6.875" stroke-linecap="butt" stroke-linejoin="miter" stroke-miterlimit="8" stroke-opacity="1" fill="none" fill-rule="evenodd"/><text fill="#000000" fill-opacity="1" font-family="Aptos,Aptos_MSFontService,sans-serif" font-style="normal" font-variant="normal" font-weight="400" font-stretch="normal" font-size="57" text-anchor="start" direction="ltr" writing-mode="lr-tb" unicode-bidi="normal" text-decoration="none" transform="matrix(1 0 0 1 376.857 1185)">Content</text><text fill="#000000" fill-opacity="1" font-family="Aptos,Aptos_MSFontService,sans-serif" font-style="normal" font-variant="normal" font-weight="400" font-stretch="normal" font-size="57" text-anchor="start" direction="ltr" writing-mode="lr-tb" unicode-bidi="normal" text-decoration="none" transform="matrix(1 0 0 1 374.153 1254)">Encoder</text><path d="M1591.5 1130.17C1591.5 1110.47 1607.47 1094.5 1627.17 1094.5L1891.83 1094.5C1911.53 1094.5 1927.5 1110.47 1927.5 1130.17L1927.5 1272.83C1927.5 1292.53 1911.53 1308.5 1891.83 1308.5L1627.17 1308.5C1607.47 1308.5 1591.5 1292.53 1591.5 1272.83Z" stroke="#042433" stroke-width="6.875" stroke-linecap="butt" stroke-linejoin="miter" stroke-miterlimit="8" stroke-opacity="1" fill="none" fill-rule="evenodd"/><text fill="#000000" fill-opacity="1" font-family="Aptos,Aptos_MSFontService,sans-serif" font-style="normal" font-variant="normal" font-weight="400" font-stretch="normal" font-size="57" text-anchor="start" direction="ltr" writing-mode="lr-tb" unicode-bidi="normal" text-decoration="none" transform="matrix(1 0 0 1 1652.76 1220)">Decoder</text><path d="M1159.5 1132C1159.5 1112.39 1175.39 1096.5 1195 1096.5L1460 1096.5C1479.61 1096.5 1495.5 1112.39 1495.5 1132L1495.5 1274C1495.5 1293.61 1479.61 1309.5 1460 1309.5L1195 1309.5C1175.39 1309.5 1159.5 1293.61 1159.5 1274Z" stroke="#042433" stroke-width="6.875" stroke-linecap="butt" stroke-linejoin="miter" stroke-miterlimit="8" stroke-opacity="1" fill="none" fill-rule="evenodd"/><text fill="#000000" fill-opacity="1" font-family="Aptos,Aptos_MSFontService,sans-serif" font-style="normal" font-variant="normal" font-weight="400" font-stretch="normal" font-size="57" text-anchor="start" direction="ltr" writing-mode="lr-tb" unicode-bidi="normal" text-decoration="none" transform="matrix(1 0 0 1 1219.05 1187)">Variance </text><text fill="#000000" fill-opacity="1" font-family="Aptos,Aptos_MSFontService,sans-serif" font-style="normal" font-variant="normal" font-weight="400" font-stretch="normal" font-size="57" text-anchor="start" direction="ltr" writing-mode="lr-tb" unicode-bidi="normal" text-decoration="none" transform="matrix(1 0 0 1 1229.18 1256)">Adapter</text><path d="M240.5 1198.06 286.881 1198.06 286.881 1204.94 240.5 1204.94ZM282.298 1187.75 309.798 1201.5 282.298 1215.25Z" fill="#000000" fill-rule="nonzero" fill-opacity="1"/><path d="M0-3.4375 180.177-3.4375 180.177 121.944 173.302 121.944 173.302 0 176.739 3.4375 0 3.4375ZM190.489 117.361 176.739 144.861 162.989 117.361Z" fill="#000000" fill-rule="nonzero" fill-opacity="1" transform="matrix(1 0 0 -1 1150.5 1454.36)"/><path d="M646.511 1198.06 1136.66 1199.61 1136.64 1206.48 646.489 1204.94ZM1132.11 1189.28 1159.57 1203.12 1132.02 1216.78Z" fill="#000000" fill-rule="nonzero" fill-opacity="1"/><path d="M240.5 1198.06 264.911 1198.06 264.911 1454.65 261.473 1451.21 278.942 1451.21 278.942 1458.08 258.036 1458.08 258.036 1201.5 261.473 1204.94 240.5 1204.94ZM274.359 1440.9 301.859 1454.65 274.359 1468.4Z" fill="#000000" fill-rule="nonzero" fill-opacity="1"/><path d="M0-3.4375 612.199-3.4375 612.199 123.415 605.324 123.415 605.324 0 608.761 3.4375 0 3.4375ZM622.511 118.832 608.761 146.332 595.011 118.832Z" fill="#000000" fill-rule="nonzero" fill-opacity="1" transform="matrix(1 0 0 -1 1150.5 1454.83)"/><path d="M0.0530352-3.43709 72.4945-2.3193 72.3884 4.55488-0.0530352 3.43709ZM68.0708-12.7013 95.3553 1.47136 67.6465 14.7954Z" fill="#000000" fill-rule="nonzero" fill-opacity="1" transform="matrix(1 0 0 -1 1495.5 1202.97)"/><text fill="#000000" fill-opacity="1" font-family="Aptos,Aptos_MSFontService,sans-serif" font-style="italic" font-variant="normal" font-weight="400" font-stretch="normal" font-size="64" text-anchor="start" direction="ltr" writing-mode="lr-tb" unicode-bidi="normal" text-decoration="none" transform="matrix(1 0 0 1 1032.37 1278)">Z</text><path d="M1.33656e-05-3.4375 69.9016-3.43723 69.9016 3.43777-1.33656e-05 3.4375ZM65.3183-13.7497 92.8183 0.000360892 65.3182 13.7503Z" fill="#000000" fill-rule="nonzero" fill-opacity="1" transform="matrix(1 0 0 -1 1930.5 403.5)"/><path d="M806.5 1383.17C806.5 1363.47 822.469 1347.5 842.167 1347.5L1114.83 1347.5C1134.53 1347.5 1150.5 1363.47 1150.5 1383.17L1150.5 1525.83C1150.5 1545.53 1134.53 1561.5 1114.83 1561.5L842.167 1561.5C822.469 1561.5 806.5 1545.53 806.5 1525.83Z" stroke="#042433" stroke-width="6.875" stroke-linecap="butt" stroke-linejoin="miter" stroke-miterlimit="8" stroke-opacity="1" fill="none" fill-rule="evenodd"/><text fill="#000000" fill-opacity="1" font-family="Aptos,Aptos_MSFontService,sans-serif" font-style="normal" font-variant="normal" font-weight="400" font-stretch="normal" font-size="57" text-anchor="start" direction="ltr" writing-mode="lr-tb" unicode-bidi="normal" text-decoration="none" transform="matrix(1 0 0 1 885.134 1439)">Pseudo</text><text fill="#000000" fill-opacity="1" font-family="Aptos,Aptos_MSFontService,sans-serif" font-style="normal" font-variant="normal" font-weight="400" font-stretch="normal" font-size="57" text-anchor="start" direction="ltr" writing-mode="lr-tb" unicode-bidi="normal" text-decoration="none" transform="matrix(1 0 0 1 877.251 1494)">Speaker</text><path d="M646.5 1451.06 783.639 1451.06 783.639 1457.94 646.5 1457.94ZM779.056 1440.75 806.556 1454.5 779.056 1468.25Z" fill="#000000" fill-rule="nonzero" fill-opacity="1"/><path d="M0.00848365-3.43749 37.1924-3.34572 37.1754 3.52926-0.00848365 3.43749ZM32.6345-13.6695 60.1005 0.148327 32.5666 13.8304Z" fill="#000000" fill-rule="nonzero" fill-opacity="1" transform="matrix(1 0 0 -1 1927.5 1201.65)"/><text fill="#000000" fill-opacity="1" font-family="Aptos,Aptos_MSFontService,sans-serif" font-style="normal" font-variant="normal" font-weight="400" font-stretch="normal" font-size="64" text-anchor="start" direction="ltr" writing-mode="lr-tb" unicode-bidi="normal" text-decoration="none" transform="matrix(1 0 0 1 878.898 1012)">(a) Training</text><text fill="#000000" fill-opacity="1" font-family="Aptos,Aptos_MSFontService,sans-serif" font-style="normal" font-variant="normal" font-weight="400" font-stretch="normal" font-size="64" text-anchor="start" direction="ltr" writing-mode="lr-tb" unicode-bidi="normal" text-decoration="none" transform="matrix(1 0 0 1 878.898 1657)">(a) Inference</text><text fill="#000000" fill-opacity="1" font-family="Aptos,Aptos_MSFontService,sans-serif" font-style="normal" font-variant="normal" font-weight="400" font-stretch="normal" font-size="57" text-anchor="start" direction="ltr" writing-mode="lr-tb" unicode-bidi="normal" text-decoration="none" transform="matrix(1 0 0 1 92.8194 418)">Wav</text><text fill="#000000" fill-opacity="1" font-family="Aptos,Aptos_MSFontService,sans-serif" font-style="normal" font-variant="normal" font-weight="400" font-stretch="normal" font-size="57" text-anchor="start" direction="ltr" writing-mode="lr-tb" unicode-bidi="normal" text-decoration="none" transform="matrix(1 0 0 1 2055.72 422)">Wav</text><text fill="#000000" fill-opacity="1" font-family="Aptos,Aptos_MSFontService,sans-serif" font-style="normal" font-variant="normal" font-weight="400" font-stretch="normal" font-size="57" text-anchor="start" direction="ltr" writing-mode="lr-tb" unicode-bidi="normal" text-decoration="none" transform="matrix(1 0 0 1 29.7646 1184)">Source</text><text fill="#000000" fill-opacity="1" font-family="Aptos,Aptos_MSFontService,sans-serif" font-style="normal" font-variant="normal" font-weight="400" font-stretch="normal" font-size="57" text-anchor="start" direction="ltr" writing-mode="lr-tb" unicode-bidi="normal" text-decoration="none" transform="matrix(1 0 0 1 29.7646 1253)">Wav</text><text fill="#000000" fill-opacity="1" font-family="Aptos,Aptos_MSFontService,sans-serif" font-style="normal" font-variant="normal" font-weight="400" font-stretch="normal" font-size="57" text-anchor="start" direction="ltr" writing-mode="lr-tb" unicode-bidi="normal" text-decoration="none" transform="matrix(1 0 0 1 2020.47 1184)">Anon</text><text fill="#000000" fill-opacity="1" font-family="Aptos,Aptos_MSFontService,sans-serif" font-style="normal" font-variant="normal" font-weight="400" font-stretch="normal" font-size="57" text-anchor="start" direction="ltr" writing-mode="lr-tb" unicode-bidi="normal" text-decoration="none" transform="matrix(1 0 0 1 2020.47 1253)">Wav</text></g></g></svg>